<svg viewBox="0 0 800 800" xmlns="http://www.w3.org/2000/svg"><path d="M478.47511003076227,695.373359600758 L477.2992800917515,694.6944938689489 M477.2992800917515,694.6944938689489 L466.1195053676389,688.2398479225033 M466.1195053676389,688.2398479225033 L445.54425485311674,676.3607214992998 M445.54425485311674,676.3607214992998 L416.6863892878248,659.6996250469404 M416.6863892878248,659.6996250469404 L381.1025081511192,639.1552616938518 M381.1025081511192,639.1552616938518 L340.70866586213765,615.833865974705 M340.70866586213765,615.833865974705 L297.67779253408605,590.9899796752896 M297.67779253408605,590.9899796752896 L254.3233341618003,565.9592714634801 M254.3233341618003,565.9592714634801 L212.97602148289297,542.0873893580454 M429.36760573009803,167.2861711115651 L212.97602148289297,542.0873893580454 M429.36760573009803,167.2861711115651 L470.69991344959783,191.1840257533382 M470.69991344959783,191.1840257533382 L514.0503873916831,216.2216520164152 M514.0503873916831,216.2216520164152 L557.0884889902076,241.05301858412062 M557.0884889902076,241.05301858412062 L597.5003993356299,264.34312791244787 M597.5003993356299,264.34312791244787 L633.112205122722,284.83912435118964 M633.112205122722,284.83912435118964 L662.0063534837644,301.43736875803233 M662.0063534837644,301.43736875803233 L682.6243103550961,313.2425256014362 M682.6243103550961,313.2425256014362 L693.8509042672691,319.61606153337624 M693.8509042672691,319.61606153337624 L695.0751672184014,320.2110556294426 M695.0751672184014,320.2110556294426 L478.47511003076227,695.373359600758 M478.47511003076227,695.373359600758 L212.97602148289297,542.0873893580454 M695.0751672184014,320.2110556294426 L429.36760573009803,167.2861711115651" stroke="black"  stroke-width="4"  fill="red"/>
<path d="M104.87414573664557,479.67474229604585 L370.47801699217223,633.0212088632309 M370.47801699217223,633.0212088632309 L329.0635073796358,609.1105305900767 M329.0635073796358,609.1105305900767 L285.62686894533147,584.0323756973386 M285.62686894533147,584.0323756973386 L242.51632962594283,559.1424942163796 M242.51632962594283,559.1424942163796 L202.0623092541622,535.7863546649295 M202.0623092541622,535.7863546649295 L166.45052534628508,515.2258816393938 M166.45052534628508,515.2258816393938 L137.60296814410128,498.5707367232499 M137.60296814410128,498.5707367232499 L117.07405881160605,486.71836539396435 M117.07405881160605,486.71836539396435 L105.96677355250085,480.30557125965396 M105.96677355250085,480.30557125965396 L104.87414573664557,479.67474229604585 M587.2485897426137,257.5635632736609 L370.47801699217223,633.0212088632309 M321.4359173404688,104.57875090109684 L587.2485897426137,257.5635632736609 M321.4359173404688,104.57875090109684 L104.87414573664557,479.67474229604585 M587.2485897426137,257.5635632736609 L545.8491397905343,233.62681774179583 M545.8491397905343,233.62681774179583 L502.41650103075153,208.54171837122692 M502.41650103075153,208.54171837122692 L459.2987060241878,183.6644041090989 M459.2987060241878,183.6644041090989 L418.8265606530838,160.33964955123665 M418.8265606530838,160.33964955123665 L383.1867646950891,139.82769481863477 M383.1867646950891,139.82769481863477 L354.30282543605006,123.23557390066952 M354.30282543605006,123.23557390066952 L333.731132781635,111.45730545866559 M333.731132781635,111.45730545866559 L322.5769827488318,105.12570034553664 M322.5769827488318,105.12570034553664 L321.4359173404688,104.57875090109684" stroke="black"  stroke-width="4"  fill="red"/>
<path d="M192.46089535752867,530.242975767107 L408.8363708915547,155.4696586302977 M84.3509397988895,467.82566382324825 L300.8965773421968,92.75761744084514 M192.46089535752867,530.242975767107 L84.3509397988895,467.82566382324825 M408.8363708915547,155.4696586302977 L300.8965773421968,92.75761744084514 M391.04389796839655,644.8949257809759 L607.8306383277992,269.40927707124825 M84.3509397988895,467.82566382324825 L391.04389796839655,644.8949257809759 M300.8965773421968,92.75761744084514 L607.8306383277992,269.40927707124825 M499.0328608309071,707.2423825591549 L715.6490602011105,332.0521195074929 M391.04389796839655,644.8949257809759 L499.0328608309071,707.2423825591549 M607.8306383277992,269.40927707124825 L715.6490602011105,332.0521195074929 M499.0328608309071,707.2423825591549 L192.46089535752867,530.242975767107 M715.6490602011105,332.0521195074929 L408.8363708915547,155.4696586302977" stroke="black"  stroke-width="4"  fill="red"/></svg>