<svg viewBox="0 0 800 800" xmlns="http://www.w3.org/2000/svg"><path d="M399.6713402351055,649.5819817358126 L615.8111787050927,275.216799966065 M183.84258708441928,524.9731930054024 L400.32270197556306,150.01863518559333 M399.6713402351055,649.5819817358126 L433.1762672458698,668.9260603646562 M433.1762672458698,668.9260603646562 L458.482642464807,683.536702909523 M458.482642464807,683.536702909523 L474.1169821709084,692.5631931474429 M474.1169821709084,692.5631931474429 L479.1650354202268,695.4776880498205 M479.1650354202268,695.4776880498205 L473.32625010409015,692.1066637758083 M473.32625010409015,692.1066637758083 L456.9328351625775,682.6419212463891 M456.9328351625775,682.6419212463891 L430.93205264342487,667.6303624598152 M430.93205264342487,667.6303624598152 L396.8324858679937,647.9429684027705 M396.8324858679937,647.9429684027705 L356.6169554741281,624.7245211042684 M356.6169554741281,624.7245211042684 L312.6269269492402,599.3268662937653 M312.6269269492402,599.3268662937653 L267.4255687724219,573.2298499826425 M267.4255687724219,573.2298499826425 L223.6472055730144,547.9544002047833 M223.6472055730144,547.9544002047833 L183.84258708441928,524.9731930054024 M615.8111787050927,275.216799966065 L649.3497856519759,294.50253484531794 M649.3497856519759,294.50253484531794 L674.6977931684246,309.04108491379844 M674.6977931684246,309.04108491379844 L690.3792628044478,317.9859353294341 M690.3792628044478,317.9859353294341 L695.4772458502025,320.81396607077613 M695.4772458502025,320.81396607077613 L689.6882543627521,317.35666278458774 M689.6882543627521,317.35666278458774 L673.3416367910806,307.81086482730336 M673.3416367910806,307.81086482730336 L647.3819298898259,292.72819457679924 M647.3819298898259,292.72819457679924 L613.3152938685282,272.9837627871998 M613.3152938685282,272.9837627871998 L573.1226274085404,249.72568037378684 M573.1226274085404,249.72568037378684 L529.144096055178,224.30812869129878 M529.144096055178,224.30812869129878 L483.94216778566204,198.2120913971813 M483.94216778566204,198.2120913971813 L440.15120779677886,172.95847672592367 M440.15120779677886,172.95847672592367 L400.32270197556306,150.01863518559333 M183.84258708441928,524.9731930054024 L150.32905874177573,505.62414839528304 M150.32905874177573,505.62414839528304 L125.05500758259404,491.03216815501713 M125.05500758259404,491.03216815501713 L109.48652684138256,482.0437016082053 M109.48652684138256,482.0437016082053 L104.52275414979738,479.1778661085224 M104.52275414979738,479.1778661085224 L110.44493394039546,482.5970382048136 M110.44493394039546,482.5970382048136 L126.90179313173292,492.098410288948 M126.90179313173292,492.098410288948 L152.9314948634934,507.12666559070556 M152.9314948634934,507.12666559070556 L187.01883075124158,526.8069981414542 M187.01883075124158,526.8069981414542 L227.18382257838596,549.9962669848553 M227.18382257838596,549.9962669848553 L271.0965421418297,575.3492874456579 M271.0965421418297,575.3492874456579 L316.2115315357179,601.3964387167064 M316.2115315357179,601.3964387167064 L359.9142780297799,626.628231169379 M359.9142780297799,626.628231169379 L399.6713402351055,649.5819817358126 M400.32270197556306,150.01863518559333 L366.77539080104737,130.72811257365828 M366.77539080104737,130.72811257365828 L341.45963286831307,116.20835375036245 M341.45963286831307,116.20835375036245 L325.8439528618387,107.3016471459506 M325.8439528618387,107.3016471459506 L320.83022948043447,104.52231195017953 M320.83022948043447,104.52231195017953 L326.7026405663096,108.02771962453505 M326.7026405663096,108.02771962453505 L343.1127677179493,117.61003397011694 M343.1127677179493,117.61003397011694 L369.1014843978778,132.70924383341338 M369.1014843978778,132.70924383341338 L403.15598461558693,152.44644943969652 M403.15598461558693,152.44644943969652 L443.29819032687715,175.6752185975352 M443.29819032687715,175.6752185975352 L487.19945543579433,201.04806195685921 M487.19945543579433,201.04806195685921 L532.3150200196785,227.09422536308603 M532.3150200196785,227.09422536308603 L576.0303021697549,252.30428863787174 M576.0303021697549,252.30428863787174 L615.8111787050927,275.216799966065" stroke="black"  stroke-width="4"  fill="red"/></svg>